PathFileType	4	(X/Y/Z)	 s04c0303.trc
DataRate	CameraRate	NumFrames	NumMarkers	Units	OrigDataRate	OrigDataStartFrame	OrigNumFrames
200	200	4	50	mm	200	1001	2000
Frame#	Time	racr			lacr			c7			jug			rlel			rdr			llel			ldr			s2			lic			ric			lasi			rasi			rpsi			lpsi			rgt			lgt			rth1			rth2			rth3			rth4			rlfc			rmfc			rsh1			rsh2			rsh3			rsh4			rlmal			rmmal			rcal			rtoe			rmt5			lth1			lth2			lth4			lth3			llfc			lmfc			lsh1			lsh2			lsh3			lsh4			llmal			lmmal			lcal			ltoe			lmt5			SBIKE			LBIKE			RBIKE			
		X1	Y1	Z1	X2	Y2	Z2	X3	Y3	Z3	X4	Y4	Z4	X5	Y5	Z5	X6	Y6	Z6	X7	Y7	Z7	X8	Y8	Z8	X9	Y9	Z9	X10	Y10	Z10	X11	Y11	Z11	X12	Y12	Z12	X13	Y13	Z13	X14	Y14	Z14	X15	Y15	Z15	X16	Y16	Z16	X17	Y17	Z17	X18	Y18	Z18	X19	Y19	Z19	X20	Y20	Z20	X21	Y21	Z21	X22	Y22	Z22	X23	Y23	Z23	X24	Y24	Z24	X25	Y25	Z25	X26	Y26	Z26	X27	Y27	Z27	X28	Y28	Z28	X29	Y29	Z29	X30	Y30	Z30	X31	Y31	Z31	X32	Y32	Z32	X33	Y33	Z33	X34	Y34	Z34	X35	Y35	Z35	X36	Y36	Z36	X37	Y37	Z37	X38	Y38	Z38	X39	Y39	Z39	X40	Y40	Z40	X41	Y41	Z41	X42	Y42	Z42	X43	Y43	Z43	X44	Y44	Z44	X45	Y45	Z45	X46	Y46	Z46	X47	Y47	Z47	X48	Y48	Z48	X49	Y49	Z49	X50	Y50	Z50	
1001	5.0050	835.836195	1262.638802	-42.546140	847.006696	1256.860889	-355.906897	859.270206	1337.814355	-198.896801	786.052914	1198.484601	-216.356558	581.787521	1105.681007	102.914023	696.110205	914.064722	-68.036475	615.399569	1145.926359	-516.295626	706.678967	910.797046	-450.540022	253.738914	1314.360661	-299.949500	422.266915	1245.946326	-420.631201	364.555434	1290.874365	-112.517950	434.473825	1189.504895	-372.516837	399.746740	1232.297422	-148.455191	286.769321	1352.765797	-255.480779	305.900328	1343.068994	-329.021306	313.835604	1255.625055	-96.815629	350.374877	1174.990639	-454.989479	399.976495	1116.861729	-81.872271	467.613847	1059.596237	-85.284448	498.380043	980.703092	-87.775365	494.820521	1080.712413	-101.435111	569.028648	851.203428	-109.677268	550.636217	835.340008	-222.176778	489.011202	753.209132	-89.598452	457.867024	668.952061	-103.822809	388.730239	618.015943	-112.812718	486.062922	653.008664	-124.885451	308.997059	488.414410	-120.119168	334.765716	491.294767	-204.188246	234.554575	473.946208	-160.196365	521.216274	386.159439	-143.568383	449.560911	378.975658	-89.355922	367.317783	1083.255190	-466.703831	408.770183	1006.826574	-465.139011	439.905793	1014.257271	-448.882812	407.860357	918.460806	-475.761158	405.252891	751.708594	-465.155943	417.506951	713.166435	-355.582064	326.417714	649.301731	-487.467914	284.264220	576.395670	-465.922741	208.563303	529.752018	-463.911747	306.651566	559.503990	-437.899083	102.722856	420.194510	-457.566655	107.959659	428.645075	-370.639615	37.611324	462.144803	-415.936457	199.469065	201.789374	-400.115853	132.863807	238.987738	-465.607824	-175.371078	933.301643	-278.114779	-3.435076	86.126038	-484.404848	-14.822630	80.105407	-84.017683	
1002	5.0100	836.366207	1264.695167	-42.729755	846.850298	1260.864857	-356.756947	859.088441	1340.979148	-198.559092	786.482065	1201.420087	-216.792496	583.882734	1106.349496	104.361716	696.315996	914.282049	-67.525923	615.800159	1146.868231	-515.938346	706.739668	910.995422	-450.619553	253.278698	1314.491840	-298.212484	422.277167	1248.456257	-419.725791	364.300860	1289.821077	-110.935472	434.912991	1191.662119	-372.256494	400.090529	1231.531557	-147.706006	286.034326	1352.844297	-253.085235	305.453049	1344.070517	-326.928524	313.430989	1253.201997	-95.688642	351.894586	1178.051907	-454.690867	398.296452	1112.689327	-82.033215	465.400114	1054.587352	-86.341603	495.035247	975.374873	-89.221064	492.870171	1075.501167	-101.765907	565.219976	846.031551	-112.155225	545.879671	830.121548	-224.123446	485.114466	746.970251	-90.805645	455.912609	661.586793	-104.769582	387.989908	609.180359	-113.460246	484.178819	646.275047	-125.491295	311.005229	477.574939	-120.102499	336.796335	480.533152	-204.430355	236.911447	462.295439	-160.021774	524.067451	376.379948	-143.799887	452.517386	368.754325	-89.545781	370.714437	1086.355983	-465.174329	413.481999	1010.877198	-464.245259	444.323901	1018.757880	-447.672513	414.396914	922.604324	-475.402181	413.508459	755.169817	-465.305915	426.024385	716.305016	-355.848862	333.400419	654.190605	-487.312652	289.760223	582.194913	-465.717905	213.021844	537.180279	-463.556971	311.645109	564.978177	-437.517602	104.673853	430.198608	-456.838594	110.036071	439.091914	-370.157220	40.508938	473.674778	-414.896445	195.634672	209.035299	-400.147789	130.153913	248.397331	-465.493861	-175.371061	933.378750	-278.089542	-3.413445	86.156247	-484.399755	-15.135425	80.483995	-83.975204	
1003	5.0150	837.162657	1267.154339	-42.946881	846.468924	1265.067818	-357.296498	858.912148	1344.251096	-198.625718	786.863411	1204.435930	-217.174370	586.536233	1107.151608	106.004865	696.758496	914.723991	-66.727186	616.468486	1148.014316	-515.593872	706.862851	911.141232	-450.688318	252.712450	1314.198126	-296.461395	422.344774	1250.708074	-418.889929	363.609871	1288.629521	-109.192404	435.402177	1193.665506	-371.968450	400.428527	1230.579930	-147.010272	285.193125	1352.588337	-250.926965	304.755496	1344.636187	-325.008085	312.981490	1250.639636	-94.521401	353.505561	1180.792697	-454.448339	396.572913	1108.364187	-82.278254	463.155146	1049.558634	-87.248885	491.676937	970.005609	-90.651511	490.797100	1070.304674	-102.006398	560.751404	840.932758	-114.031750	540.074926	824.784051	-225.574548	481.727749	740.440184	-91.975402	453.709116	654.442236	-105.607438	386.768542	600.657181	-114.067845	482.311004	639.466738	-126.207031	312.567524	467.238650	-120.122601	338.317161	469.995473	-204.433814	238.776567	451.043109	-159.763121	526.393933	366.198825	-144.035143	454.968489	358.373709	-89.779918	374.041864	1089.652351	-464.511264	417.823234	1014.749990	-463.267982	448.453556	1023.042901	-446.493127	420.335032	926.630421	-475.073902	421.239299	758.595475	-465.183008	434.280074	719.424415	-355.768929	340.428550	658.915133	-487.233993	295.411127	587.760946	-465.311281	217.761210	544.260436	-463.171860	316.784517	570.438491	-436.967630	106.846595	440.365580	-456.129737	112.529704	448.067038	-369.472144	43.786730	485.235149	-414.049420	192.464870	216.728635	-400.223753	128.018124	258.027593	-465.372653	-175.362272	933.352271	-277.956564	-3.382217	86.180029	-484.402151	-15.123453	80.484271	-83.968005	
1004	5.0200	837.913763	1269.755727	-43.405229	846.014725	1269.561872	-357.721712	859.082977	1347.885608	-198.794381	786.971225	1208.176797	-217.956234	589.507575	1108.066881	107.752716	697.387000	915.185720	-65.993143	617.342280	1149.225283	-515.337986	707.091241	911.329449	-450.798575	252.088253	1313.540894	-295.080437	422.391939	1252.920251	-418.008077	366.219441	1286.411447	-109.548812	435.972908	1195.522532	-371.682004	400.745380	1229.441207	-146.381118	284.271727	1351.964601	-248.887139	303.992854	1344.832087	-323.091639	312.067216	1247.903333	-93.888407	355.194563	1183.107508	-454.315059	394.784004	1104.160267	-82.558123	460.122379	1044.606059	-87.246670	488.114958	964.723642	-92.039343	488.668384	1065.080571	-102.403125	556.090007	835.854559	-115.667770	534.923947	819.348069	-227.792495	478.302345	733.471041	-92.818015	451.414593	647.094706	-106.341460	385.302930	592.336992	-114.552896	480.359840	632.514928	-126.915217	313.762809	456.998625	-120.204586	339.620661	459.490526	-204.463775	240.357491	440.256648	-159.578730	528.149433	355.416796	-144.176778	456.895439	347.791830	-90.092412	377.066432	1092.724105	-463.517249	421.850882	1018.356697	-462.353126	452.318790	1026.992920	-445.581526	425.639945	930.362762	-474.730594	428.508822	762.098703	-464.716410	442.457216	722.488968	-355.427749	347.456711	663.318575	-487.152758	301.046857	593.288910	-464.725217	222.625175	551.236105	-462.570793	322.006769	575.715623	-436.201399	109.087069	450.621338	-455.444131	115.075529	457.947409	-368.944996	47.068157	496.732906	-413.230170	189.925994	224.964064	-400.192063	126.482171	267.846666	-465.259753	-175.386865	933.412760	-278.003172	-3.369467	86.190151	-484.403000	-15.093948	80.505995	-83.951035	
